# xmcd
#
# Track frame offsets:
#	150
#	15215
#	27430
#	42730
#	56152
#	77770
#	88020
#	101985
#	126692
#	135922
#	150515
#
# Disc length: 2174 seconds
# Revision: 1
# Processed by: cddbd v1.5.2PL0 Copyright (c) Steve Scherf et al.
# Submitted via: dBpowerAMP V12.0
#
DISCID=8f087c0b
DTITLE=Ricky Van Shelton - Don't Overlook Salvation
DYEAR=1990
DGENRE=Country
TTITLE0=Don't Overlook Salvation
TTITLE1=To My Mansion In The Sky
TTITLE2=Family Bible
TTITLE3=Holy (I Bowed On My Knees And Cried Holy)
TTITLE4=Supper Time
TTITLE5=I Shall Not Be Moved
TTITLE6=Mansion Over The Hilltop
TTITLE7=The Old Rugged Cross
TTITLE8=I Wouldn't Take Nothin' For My Journey
TTITLE9=I Saw A Man
TTITLE10=Just As I Am - He Smiled As He Ran Out To Play
EXTD=
EXTT0=
EXTT1=
EXTT2=
EXTT3=
EXTT4=
EXTT5=
EXTT6=
EXTT7=
EXTT8=
EXTT9=
EXTT10=
PLAYORDER=
